<svg xmlns="http://www.w3.org/2000/svg" viewBox="0 0 200 200" width="512" height="512">
  <!-- Fondo blanco sólido en proporción 1x1 perfecta -->
  <rect width="200" height="200" fill="#ffffff" />

  <style>
    circle { stroke: #0b1c3d; }
    text { font-family: 'Arial', sans-serif; fill: #0b1c3d; }
    .subtitle { fill: #139384; }
  </style>
  
  <!-- Estructura circular del logo perfectamente centrada -->
  <circle cx="100" cy="100" r="90" fill="none" stroke-width="3" />
  <circle cx="100" cy="100" r="85" fill="none" stroke-width="1.5" />
  
  <!-- Isologotipo interno (Manos, Cruz y Familia) -->
  <g transform="translate(100, 72) scale(1.15)">
    <path d="M-2,28 C-9,22 -20,10 -20,-10 C-20,-24 -13,-30 -6,-30 C-1,-30 2,-25 3,-22 C1,-23 -2,-23 -4,-20 C-9,-14 -10,-2 -1,8 C1,10 3,12 3,12 C3,12 -1,10 -4,7 C-9,2 -9,-10 -4,-16 C-2,-19 0,-20 2,-20 C-1,-20 -3,-18 -5,-14 C-8,-8 -7,3 -1,10 M-19,-8 C-22,-6 -27,0 -26,5 C-25,10 -20,13 -15,10 C-17,8 -19,5 -19,2 C-19,-1 -20,-4 -21,-6" fill="#116979" />
    <path d="M2,28 C9,22 20,10 20,-10 C20,-24 13,-30 6,-30 C1,-30 -2,-25 -3,-22 C-1,-23 2,-23 4,-20 C9,-14 10,-2 1,8 C-1,10 -3,12 -3,12 C-3,12 1,10 4,7 C9,2 9,-10 4,-16 C2,-19 0,-20 -2,-20 C1,-20 3,-18 5,-14 C8,-8 7,3 1,10 M19,-8 C22,-6 27,0 26,5 C25,10 20,13 15,10 C17,8 19,5 19,2 C19,-1 20,-4 21,-6" fill="#4b86b4" />
    <path d="M-10,2 L-10,-6 L-4,-6 L-4,-12 L2,-12 L2,-6 L8,-6 L8,2 L2,2 L2,8 L-4,8 L-4,2 Z" fill="#ff2941" />
    <circle cx="8" cy="-14" r="2.5" fill="#0b1c3d" />
    <path d="M4,-9 C4,-11 6,-11 8,-11 C10,-11 12,-11 12,-9 L12,-2 L4,-2 Z" fill="#0b1c3d" />
    <circle cx="13" cy="-11" r="2.2" fill="#0b1c3d" />
    <path d="M10,-7 C10,-9 11.5,-9.5 13,-9.5 C14.5,-9.5 16,-9 16,-7 L16,-2 L10,-2 Z" fill="#0b1c3d" />
    <circle cx="4" cy="-7" r="1.5" fill="#0b1c3d" />
    <path d="M2.5,-4 C2.5,-5 3.2,-5.5 4,-5.5 C4.8,-5.5 5.5,-5 5.5,-4 L5.5,-2 L2.5,-2 Z" fill="#0b1c3d" />
  </g>
  
  <!-- Tipografía Oficial Centrada -->
  <text x="100" y="132" font-size="15" font-weight="800" text-anchor="middle" letter-spacing="-0.5">MUTUALIDAD</text>
  <text x="100" y="148" font-size="15" font-weight="800" text-anchor="middle" letter-spacing="-0.5">DE LA SALUD</text>
  <text x="100" y="164" class="subtitle" font-size="6.2" font-weight="700" text-anchor="middle" letter-spacing="0.6">PROTECCIÓN Y BIENESTAR FAMILIAR</text>
</svg>